<svg width="24" height="24" viewBox="0 0 24 24" fill="none" xmlns="http://www.w3.org/2000/svg">
<path fill-rule="evenodd" clip-rule="evenodd" d="M12 12C18.5221 12 21.6709 15.1483 20.8805 21.0367C20.8064 21.5883 20.3357 22 19.7791 22H4.22094C3.66433 22 3.19357 21.5883 3.11953 21.0367C2.32911 15.1483 5.47791 12 12 12ZM12 14.2222C7.14942 14.2222 5.04286 15.9663 5.23197 19.7778H18.768C18.9571 15.9663 16.8506 14.2222 12 14.2222ZM12 2C14.455 2 16.4452 3.98985 16.4452 6.44444C16.4452 8.89904 14.455 10.8889 12 10.8889C9.545 10.8889 7.55483 8.89904 7.55483 6.44444C7.55483 3.98985 9.545 2 12 2ZM12 4.22222C10.7725 4.22222 9.77741 5.21715 9.77741 6.44444C9.77741 7.67174 10.7725 8.66667 12 8.66667C13.2275 8.66667 14.2226 7.67174 14.2226 6.44444C14.2226 5.21715 13.2275 4.22222 12 4.22222Z" fill="currentColor"/>
</svg>
