<svg width="16" height="14" viewBox="0 0 16 14" fill="none" xmlns="http://www.w3.org/2000/svg">
<path fill-rule="evenodd" clip-rule="evenodd" d="M15.5003 7.00031C15.5003 7.48042 15.1274 7.87375 14.6544 7.90852L14.5862 7.91102L3.56146 7.9108L7.21342 11.8464C7.55614 12.2157 7.53344 12.7919 7.16272 13.1333C6.81151 13.4568 6.27394 13.4535 5.92692 13.1382L5.87091 13.0828L0.699993 7.51046C0.43301 7.22275 0.43301 6.77786 0.699993 6.49015L5.87091 0.9178C6.21364 0.548471 6.792 0.525858 7.16272 0.867293C7.51393 1.19076 7.55279 1.72492 7.2645 2.09428L7.21342 2.15425L3.56184 6.08943L14.5862 6.08959C15.0911 6.08959 15.5003 6.49733 15.5003 7.00031Z" fill="white"/>
</svg>
