<svg width="26" height="26" viewBox="0 0 26 26" fill="none" xmlns="http://www.w3.org/2000/svg">
<path fill-rule="evenodd" clip-rule="evenodd" d="M12.675 13C14.0885 13 15.3556 13.1365 16.4717 13.4059C16.5007 13.4129 16.5401 13.4269 16.5853 13.447L16.6323 13.4691C16.8807 13.5759 17.0896 13.7756 17.2024 14.0448C17.4338 14.5965 17.174 15.2314 16.6222 15.4627C15.8636 15.7807 15.2285 16.3341 14.8079 17.0625C13.8745 18.6793 14.2605 20.7285 15.6913 21.8945C16.1551 22.2724 16.237 22.9711 15.8591 23.4349C15.7049 23.6241 15.498 23.745 15.2756 23.7962L15.1794 23.8138C15.1234 23.8266 15.0524 23.8333 14.9652 23.8333H4.24774C3.64473 23.8333 3.13475 23.3873 3.05454 22.7897C2.19826 16.4106 5.60945 13 12.675 13ZM12.675 15.4074C7.42025 15.4074 5.13815 17.2968 5.34301 21.4259L12.6674 21.4266C11.8954 19.7259 11.9394 17.6976 12.9316 15.9792C13.0069 15.8487 13.0867 15.7217 13.1708 15.5983L13.299 15.4164L13.1188 15.4121C12.9733 15.409 12.8254 15.4074 12.675 15.4074ZM19.7709 18.1458C20.2196 18.1458 20.5834 18.5096 20.5834 18.9583C20.5834 19.4071 20.2196 19.7708 19.7709 19.7708H17.0625C16.6138 19.7708 16.25 19.4071 16.25 18.9583C16.25 18.5096 16.6138 18.1458 17.0625 18.1458H19.7709ZM12.675 2.16667C15.3346 2.16667 17.4907 4.32234 17.4907 6.98149C17.4907 9.64064 15.3346 11.7963 12.675 11.7963C10.0155 11.7963 7.85944 9.64064 7.85944 6.98149C7.85944 4.32234 10.0155 2.16667 12.675 2.16667ZM12.675 4.57408C11.3453 4.57408 10.2672 5.65191 10.2672 6.98149C10.2672 8.31106 11.3453 9.38889 12.675 9.38889C14.0048 9.38889 15.0829 8.31106 15.0829 6.98149C15.0829 5.65191 14.0048 4.57408 12.675 4.57408Z" fill="#6E7583"/>
</svg>
