<svg width="40" height="42" viewBox="0 0 40 42" fill="none" xmlns="http://www.w3.org/2000/svg">
<path d="M4.94445 34.6222H15.3889V37.5667C15.4141 37.7872 15.4781 38.0017 15.5778 38.2L17.4444 40.8778C17.5466 41.025 17.6828 41.1452 17.8413 41.2284C18 41.3117 18.1764 41.3552 18.3556 41.3556C18.5347 41.3552 18.7111 41.3117 18.8698 41.2284C19.0283 41.1452 19.1646 41.025 19.2667 40.8778L20.2222 39.5111L21.1778 40.8778C21.2799 41.025 21.4161 41.1452 21.5747 41.2284C21.7333 41.3117 21.9098 41.3552 22.0889 41.3556C22.268 41.3552 22.4444 41.3117 22.6031 41.2284C22.7617 41.1452 22.8979 41.025 23 40.8778L23.9556 39.5111L24.9111 40.8778C25.0136 41.0244 25.1498 41.1443 25.3084 41.227C25.4671 41.3098 25.6433 41.3529 25.8222 41.3529C26.0011 41.3529 26.1773 41.3098 26.336 41.227C26.4947 41.1443 26.6309 41.0244 26.7333 40.8778L27.6889 39.5111L28.6333 40.8778C28.7353 41.0268 28.8722 41.1486 29.0319 41.2328C29.1917 41.317 29.3694 41.361 29.55 41.361C29.7306 41.361 29.9083 41.317 30.0681 41.2328C30.2278 41.1486 30.3647 41.0268 30.4667 40.8778L31.4111 39.5111L32.3667 40.8778C32.4687 41.0268 32.6056 41.1486 32.7652 41.2328C32.925 41.317 33.1028 41.361 33.2833 41.361C33.4639 41.361 33.6417 41.317 33.8014 41.2328C33.9611 41.1486 34.098 41.0268 34.2 40.8778L35.1444 39.5111L36.1111 40.8889C36.2144 41.034 36.3511 41.1522 36.5097 41.2334C36.6683 41.3147 36.8441 41.3566 37.0222 41.3556C37.2003 41.3566 37.3761 41.3147 37.5347 41.2334C37.6933 41.1522 37.83 41.034 37.9333 40.8889L39.8 38.2C39.9097 38.0049 39.9778 37.7893 40 37.5667V4.95556C40 3.64126 39.4779 2.3808 38.5486 1.45144C37.6192 0.5221 36.3588 0 35.0444 0H12.6444C11.3301 0 10.0697 0.5221 9.14033 1.45144C8.211 2.3808 7.68889 3.64126 7.68889 4.95556V18.8889H1.11111C0.816445 18.8889 0.533778 19.006 0.325445 19.2143C0.117111 19.4227 0 19.7053 0 20V29.6444C0 30.9589 0.519889 32.22 1.44611 33.1526C2.37244 34.0851 3.63 34.6134 4.94445 34.6222ZM37.7778 4.95556V37.1778L37.0222 38.2889L36.0556 36.9111C35.9522 36.766 35.8156 36.6478 35.6569 36.5666C35.4983 36.4853 35.3226 36.4434 35.1444 36.4444C34.9653 36.4448 34.7889 36.4883 34.6302 36.5716C34.4717 36.6548 34.3354 36.775 34.2333 36.9222L33.3333 38.3L32.3889 36.9333C32.2869 36.7843 32.15 36.6626 31.9903 36.5783C31.8306 36.4941 31.6528 36.4501 31.4722 36.4501C31.2917 36.4501 31.1139 36.4941 30.9541 36.5783C30.7944 36.6626 30.6576 36.7843 30.5556 36.9333L29.6 38.3L28.6556 36.9333C28.5534 36.7861 28.4172 36.6658 28.2587 36.5827C28.1 36.4994 27.9236 36.4559 27.7444 36.4556C27.5653 36.4559 27.3889 36.4994 27.2302 36.5827C27.0717 36.6658 26.9354 36.7861 26.8333 36.9333L25.8778 38.3L24.9222 36.9333C24.8198 36.7867 24.6836 36.6668 24.5249 36.5841C24.3662 36.5013 24.19 36.4582 24.0111 36.4582C23.8322 36.4582 23.656 36.5013 23.4973 36.5841C23.3387 36.6668 23.2024 36.7867 23.1 36.9333L22.1444 38.3L21.1111 36.9333C21.009 36.7861 20.8728 36.6658 20.7142 36.5827C20.5556 36.4994 20.3791 36.4559 20.2 36.4556C20.0209 36.4559 19.8444 36.4994 19.6858 36.5827C19.5272 36.6658 19.391 36.7861 19.2889 36.9333L18.3333 38.3L17.5889 37.1889V4.96667C17.5957 3.9918 17.3133 3.0368 16.7778 2.22222H35.0444C35.7693 2.22222 36.4646 2.5102 36.9772 3.0228C37.4898 3.5354 37.7778 4.23063 37.7778 4.95556ZM10.7111 3.02222C11.0949 2.64132 11.5826 2.38226 12.113 2.27756C12.6434 2.17286 13.1931 2.22718 13.6928 2.4337C14.1924 2.64022 14.62 2.98976 14.9218 3.43841C15.2236 3.88707 15.386 4.41487 15.3889 4.95556V32.4H9.07778C9.61611 31.5861 9.90211 30.6313 9.9 29.6556V4.96667C9.89856 4.60483 9.96967 4.24638 10.109 3.91243C10.2482 3.57849 10.453 3.2758 10.7111 3.02222ZM7.67778 29.6889C7.70167 30.0632 7.64845 30.4386 7.52167 30.7916C7.39478 31.1446 7.19689 31.4678 6.94022 31.7413C6.68356 32.0149 6.37356 32.2329 6.02933 32.3819C5.68511 32.531 5.314 32.6079 4.93889 32.6079C4.56378 32.6079 4.19267 32.531 3.84844 32.3819C3.50422 32.2329 3.19422 32.0149 2.93756 31.7413C2.68089 31.4678 2.483 31.1446 2.35611 30.7916C2.22933 30.4386 2.17611 30.0632 2.2 29.6889V21.1111H7.67778V29.6889Z" fill="white"/>
<path d="M28.2665 10.7223H27.1554C27.0617 10.7255 26.9704 10.6927 26.9002 10.6307C26.83 10.5687 26.7861 10.4823 26.7776 10.389C26.7831 10.302 26.8184 10.2195 26.8776 10.1556C26.953 10.085 27.0522 10.0453 27.1554 10.0445H29.3776C29.6723 10.0445 29.955 9.9274 30.1633 9.71906C30.3716 9.51073 30.4887 9.22806 30.4887 8.9334C30.4887 8.63873 30.3716 8.35606 30.1633 8.14773C29.955 7.9394 29.6723 7.82229 29.3776 7.82229H28.8776V7.28895C28.8776 6.99426 28.7605 6.71165 28.5522 6.50327C28.3439 6.2949 28.0612 6.17784 27.7665 6.17784C27.4719 6.17784 27.1892 6.2949 26.9809 6.50327C26.7724 6.71165 26.6554 6.99426 26.6554 7.28895V7.88895C26.1664 7.97729 25.7164 8.21395 25.3665 8.56673C25.1201 8.80184 24.924 9.08462 24.7903 9.39784C24.6566 9.71117 24.588 10.0484 24.5888 10.389C24.5975 11.0717 24.8756 11.7233 25.3626 12.202C25.8496 12.6806 26.506 12.9475 27.1887 12.9445H28.2999C28.3465 12.9415 28.3934 12.9477 28.4378 12.9628C28.482 12.9781 28.5229 13.0017 28.558 13.0327C28.5931 13.0637 28.6217 13.1013 28.6422 13.1434C28.6627 13.1854 28.6747 13.2311 28.6776 13.2778C28.6776 13.3606 28.6457 13.4402 28.5887 13.5001C28.5089 13.5705 28.4063 13.61 28.2999 13.6112H26.0776C25.783 13.6112 25.5003 13.7283 25.292 13.9366C25.0835 14.145 24.9665 14.4276 24.9665 14.7223C24.9665 15.017 25.0835 15.2996 25.292 15.508C25.5003 15.7163 25.783 15.8334 26.0776 15.8334H26.5776V16.3778C26.5776 16.6725 26.6946 16.9552 26.9031 17.1635C27.1114 17.3718 27.3941 17.489 27.6887 17.489C27.9834 17.489 28.2661 17.3718 28.4744 17.1635C28.6827 16.9552 28.7999 16.6725 28.7999 16.3778V15.7778C29.2877 15.6773 29.738 15.4425 30.0999 15.1001C30.4642 14.742 30.7129 14.2828 30.8137 13.782C30.9145 13.2812 30.863 12.7616 30.6656 12.2904C30.4683 11.8191 30.1342 11.4178 29.7066 11.1383C29.279 10.8588 28.7773 10.714 28.2665 10.7223Z" fill="white"/>
<path d="M27.6886 3.84441C26.1081 3.84221 24.5624 4.30888 23.2472 5.18538C21.932 6.06187 20.9063 7.30879 20.3 8.76838C19.6935 10.2279 19.5338 11.8346 19.8408 13.385C20.1478 14.9355 20.9078 16.3599 22.0245 17.4784C23.1414 18.5967 24.5649 19.3587 26.1149 19.6678C27.6649 19.977 29.2718 19.8195 30.7322 19.2152C32.1925 18.6108 33.441 17.5868 34.3192 16.2728C35.1975 14.9588 35.6664 13.4138 35.6664 11.8333C35.6634 9.71738 34.8223 7.68871 33.3272 6.19147C31.832 4.69421 29.8045 3.85029 27.6886 3.84441ZM27.6886 17.5888C26.5471 17.591 25.4306 17.2544 24.4806 16.6216C23.5306 15.9888 22.7898 15.0883 22.352 14.0342C21.9141 12.9799 21.799 11.8196 22.0211 10.6999C22.2433 9.58027 22.7928 8.55171 23.5999 7.74455C24.407 6.9374 25.4355 6.38795 26.5552 6.1658C27.6749 5.94365 28.8353 6.05878 29.8894 6.49663C30.9436 6.93447 31.8441 7.67531 32.477 8.62538C33.1098 9.57538 33.4463 10.6918 33.4442 11.8333C33.4412 13.3588 32.8339 14.8212 31.7552 15.8998C30.6764 16.9786 29.2142 17.5859 27.6886 17.5888Z" fill="white"/>
<path d="M20 24.5334H26.9889C27.2836 24.5334 27.5662 24.4164 27.7746 24.208C27.9829 23.9996 28.1 23.717 28.1 23.4223C28.1 23.1276 27.9829 22.845 27.7746 22.6366C27.5662 22.4283 27.2836 22.3112 26.9889 22.3112H20C19.7053 22.3112 19.4227 22.4283 19.2143 22.6366C19.006 22.845 18.8889 23.1276 18.8889 23.4223C18.8889 23.717 19.006 23.9996 19.2143 24.208C19.4227 24.4164 19.7053 24.5334 20 24.5334Z" fill="white"/>
<path d="M33.9667 25.6445H20C19.7053 25.6445 19.4227 25.7616 19.2143 25.97C19.006 26.1783 18.8889 26.461 18.8889 26.7556C18.8889 27.0503 19.006 27.333 19.2143 27.5413C19.4227 27.7498 19.7053 27.8668 20 27.8668H33.9667C34.2613 27.8668 34.544 27.7498 34.7523 27.5413C34.9607 27.333 35.0778 27.0503 35.0778 26.7556C35.0778 26.461 34.9607 26.1783 34.7523 25.97C34.544 25.7616 34.2613 25.6445 33.9667 25.6445Z" fill="white"/>
<path d="M33.9667 28.9779H20C19.7053 28.9779 19.4227 29.095 19.2143 29.3033C19.006 29.5116 18.8889 29.7943 18.8889 30.089C18.8889 30.3836 19.006 30.6663 19.2143 30.8746C19.4227 31.0831 19.7053 31.2001 20 31.2001H33.9667C34.2613 31.2001 34.544 31.0831 34.7523 30.8746C34.9607 30.6663 35.0778 30.3836 35.0778 30.089C35.0778 29.7943 34.9607 29.5116 34.7523 29.3033C34.544 29.095 34.2613 28.9779 33.9667 28.9779Z" fill="white"/>
<path d="M33.9667 32.3001H20C19.7053 32.3001 19.4227 32.4172 19.2143 32.6255C19.006 32.8339 18.8889 33.1165 18.8889 33.4112C18.8889 33.7059 19.006 33.9885 19.2143 34.1969C19.4227 34.4053 19.7053 34.5223 20 34.5223H33.9667C34.2613 34.5223 34.544 34.4053 34.7523 34.1969C34.9607 33.9885 35.0778 33.7059 35.0778 33.4112C35.0778 33.1165 34.9607 32.8339 34.7523 32.6255C34.544 32.4172 34.2613 32.3001 33.9667 32.3001Z" fill="white"/>
</svg>
