<svg width="26" height="26" viewBox="0 0 26 26" fill="none" xmlns="http://www.w3.org/2000/svg">
<path fill-rule="evenodd" clip-rule="evenodd" d="M6.22925 23.8333C4.47512 23.8333 3.04556 22.4436 2.98149 20.7052L2.97925 20.5833V5.41667C2.97925 3.66254 4.36893 2.23298 6.10741 2.16891L6.22925 2.16667H13.8126C15.5667 2.16667 16.9963 3.55635 17.0603 5.29483L17.0626 5.41667V10.8333H20.3126C21.769 10.8333 22.9569 11.9829 23.0184 13.4242L23.0209 13.5417V21.125C23.0209 22.5814 21.8713 23.7693 20.4301 23.8308L20.3126 23.8333H6.22925ZM20.3126 13H17.0626V21.6667H20.3126C20.5904 21.6667 20.8193 21.4576 20.8506 21.1882L20.8542 21.125V13.5417C20.8542 13.2639 20.6451 13.0349 20.3757 13.0036L20.3126 13ZM13.8126 4.33333H6.22925C5.65814 4.33333 5.19024 4.77527 5.14889 5.33582L5.14591 5.41667V20.5833C5.14591 21.1544 5.58785 21.6223 6.1484 21.6637L6.22925 21.6667H6.77091V18.9583C6.77091 17.5019 7.9205 16.314 9.36177 16.2525L9.47925 16.25H11.1042C12.5607 16.25 13.7486 17.3996 13.8101 18.8409L13.8126 18.9583V21.6667H14.8959V5.41667C14.8959 4.87411 14.4971 4.42471 13.9766 4.34567L13.8934 4.33631L13.8126 4.33333ZM11.1042 18.4167H9.47925C9.20146 18.4167 8.97251 18.6258 8.94123 18.8952L8.93758 18.9583V21.6667H11.6459V18.9583C11.6459 18.7019 11.4677 18.4871 11.2284 18.431L11.1674 18.4203L11.1042 18.4167ZM12.4584 12.4583C12.9071 12.4583 13.2709 12.8221 13.2709 13.2708V13.8125C13.2709 14.2612 12.9071 14.625 12.4584 14.625H11.3751C10.9263 14.625 10.5626 14.2612 10.5626 13.8125V13.2708C10.5626 12.8221 10.9263 12.4583 11.3751 12.4583H12.4584ZM8.66675 12.4583C9.11548 12.4583 9.47925 12.8221 9.47925 13.2708V13.8125C9.47925 14.2612 9.11548 14.625 8.66675 14.625H7.58342C7.13468 14.625 6.77091 14.2612 6.77091 13.8125V13.2708C6.77091 12.8221 7.13468 12.4583 7.58342 12.4583H8.66675ZM12.4584 9.20833C12.9071 9.20833 13.2709 9.5721 13.2709 10.0208V10.5625C13.2709 11.0112 12.9071 11.375 12.4584 11.375H11.3751C10.9263 11.375 10.5626 11.0112 10.5626 10.5625V10.0208C10.5626 9.5721 10.9263 9.20833 11.3751 9.20833H12.4584ZM8.66675 9.20833C9.11548 9.20833 9.47925 9.5721 9.47925 10.0208V10.5625C9.47925 11.0112 9.11548 11.375 8.66675 11.375H7.58342C7.13468 11.375 6.77091 11.0112 6.77091 10.5625V10.0208C6.77091 9.5721 7.13468 9.20833 7.58342 9.20833H8.66675ZM12.4584 5.95833C12.9071 5.95833 13.2709 6.3221 13.2709 6.77083V7.3125C13.2709 7.76123 12.9071 8.125 12.4584 8.125H11.3751C10.9263 8.125 10.5626 7.76123 10.5626 7.3125V6.77083C10.5626 6.3221 10.9263 5.95833 11.3751 5.95833H12.4584ZM8.66675 5.95833C9.11548 5.95833 9.47925 6.3221 9.47925 6.77083V7.3125C9.47925 7.76123 9.11548 8.125 8.66675 8.125H7.58342C7.13468 8.125 6.77091 7.76123 6.77091 7.3125V6.77083C6.77091 6.3221 7.13468 5.95833 7.58342 5.95833H8.66675Z" fill="#6E7583"/>
</svg>
