<svg width="13" height="13" viewBox="0 0 13 13" fill="none" xmlns="http://www.w3.org/2000/svg">
<path fill-rule="evenodd" clip-rule="evenodd" d="M2.0493 0.0027069L1.95717 0C1.87738 0 1.79771 0.00633072 1.71888 0.0190177C1.2416 0.0895374 0.817574 0.390797 0.588777 0.827527C-0.00352066 1.92741 -0.156829 3.22001 0.164727 4.43455C0.516987 5.84241 1.60526 7.51406 2.98318 9.0025L3.22926 9.26317C4.88861 10.9871 6.91251 12.421 8.57411 12.8372C9.77719 13.1562 11.0698 13.0032 12.1778 12.4065C12.605 12.1859 12.9089 11.7612 12.9819 11.2719C13.0483 10.8509 12.9303 10.4156 12.6574 10.0812L12.6282 10.0474L12.5793 9.99357L11.2406 8.65387C10.8029 8.2107 10.1328 8.08001 9.55495 8.32706C9.30159 8.43486 9.06583 8.58188 8.8568 8.76224L8.75456 8.85517C8.20307 9.40653 6.82408 8.91368 5.45435 7.54555C4.11836 6.20469 3.61809 4.86039 4.0967 4.29906L4.13255 4.26031C4.37121 4.01041 4.55042 3.73696 4.67623 3.43821C4.89935 2.91572 4.81148 2.30932 4.44889 1.8697L4.42095 1.83753L4.3735 1.78562L3.03631 0.447622C2.77514 0.183543 2.42234 0.0249612 2.0493 0.0027069Z" fill="white"/>
</svg>
