<svg xmlns="http://www.w3.org/2000/svg" width="21" height="20" viewBox="0 0 21 20">
    <g fill="none" fill-rule="evenodd">
        <g fill="#1FB14F">
            <g>
                <g>
                    <path d="M10.707 12.707l-.094.083c-.393.306-.96.278-1.32-.083l-3-3-.083-.094c-.306-.393-.278-.96.083-1.32.391-.391 1.023-.391 1.414 0L10 10.586l9.293-9.293.094-.083c.393-.306.96-.278 1.32.083.391.391.391 1.023 0 1.414l-10 10zM17.707 17.707l1.414 1.414c-.562.563-1.325.879-2.121.879H3v-2h14c.266 0 .52-.105.707-.293zM2 3v14l.009.132c.028.217.127.42.284.575l.099.087c.173.133.386.206.608.206v2c-.796 0-1.559-.316-2.121-.879C.316 18.558 0 17.796 0 17V3h2zm17 6c.553 0 1 .448 1 1v7l-.007.198c-.047.724-.356 1.408-.872 1.923l-1.414-1.414c.188-.187.293-.441.293-.707v-7l.007-.117c.057-.497.48-.883.993-.883zM3 0v2c-.266 0-.52.105-.707.293l-.087.099C2.073 2.565 2 2.779 2 3H0C0 2.205.316 1.441.879.879l.145-.136C1.568.266 2.27 0 3 0zm0 2V0h11c.553 0 1 .448 1 1 0 .553-.447 1-1 1H3z" transform="translate(-111.000000, -687.000000) translate(24.000000, 654.000000) translate(87.000000, 33.000000)"/>
                </g>
            </g>
        </g>
    </g>
</svg>
