<svg width="26" height="26" viewBox="0 0 26 26" fill="none" xmlns="http://www.w3.org/2000/svg">
<path fill-rule="evenodd" clip-rule="evenodd" d="M17.875 2.16666C20.8158 2.16666 23.2093 4.51028 23.2896 7.43172L23.2917 7.58333V18.4167C23.2917 21.3575 20.9481 23.751 18.0266 23.8313L17.875 23.8333H8.66667C7.21026 23.8333 6.02235 22.6837 5.96084 21.2425L5.95833 21.125V20.0417C5.95833 19.4434 6.44336 18.9583 7.04167 18.9583C7.61278 18.9583 8.08067 19.4003 8.12203 19.9608L8.125 20.0417V21.125C8.125 21.4028 8.33411 21.6317 8.6035 21.663L8.66667 21.6667H17.875C19.6291 21.6667 21.0587 20.277 21.1228 18.5385L21.125 18.4167V7.58333C21.125 5.8292 19.7353 4.39965 17.9968 4.33557L17.875 4.33333H8.66667C8.38888 4.33333 8.15993 4.54244 8.12864 4.81183L8.125 4.875V5.95833C8.125 6.55664 7.63998 7.04166 7.04167 7.04166C6.47055 7.04166 6.00266 6.59973 5.9613 6.03918L5.95833 5.95833V4.875C5.95833 3.41859 7.10792 2.23068 8.54918 2.16917L8.66667 2.16666H17.875ZM15.1667 13.65C17.5868 13.65 19.3917 15.0393 19.3917 17.3333C19.3917 17.8718 18.9551 18.3083 18.4167 18.3083C17.9051 18.3083 17.4856 17.9144 17.4449 17.4133L17.4417 17.3333C17.4417 16.2793 16.6579 15.642 15.304 15.602L15.1667 15.6H14.0833C12.6452 15.6 11.8083 16.2442 11.8083 17.3333C11.8083 17.8718 11.3718 18.3083 10.8333 18.3083C10.2949 18.3083 9.85833 17.8718 9.85833 17.3333C9.85833 15.0852 11.5917 13.7059 13.9389 13.6517L14.0833 13.65H15.1667ZM7.58333 15.7083C7.88249 15.7083 8.125 15.9508 8.125 16.25V17.3333C8.125 17.6325 7.88249 17.875 7.58333 17.875H5.95833C5.36002 17.875 4.875 17.39 4.875 16.7917C4.875 16.1934 5.36002 15.7083 5.95833 15.7083H7.58333ZM7.58333 11.375C7.88249 11.375 8.125 11.6175 8.125 11.9167V14.0833C8.125 14.3825 7.88249 14.625 7.58333 14.625H6.5C6.20085 14.625 5.95833 14.3825 5.95833 14.0833V11.9167C5.95833 11.6175 6.20085 11.375 6.5 11.375H7.58333ZM14.625 7.69166C16.0609 7.69166 17.225 8.85572 17.225 10.2917C17.225 11.7276 16.0609 12.8917 14.625 12.8917C13.1891 12.8917 12.025 11.7276 12.025 10.2917C12.025 8.85572 13.1891 7.69166 14.625 7.69166ZM14.625 9.64166C14.266 9.64166 13.975 9.93268 13.975 10.2917C13.975 10.6506 14.266 10.9417 14.625 10.9417C14.984 10.9417 15.275 10.6506 15.275 10.2917C15.275 9.93268 14.984 9.64166 14.625 9.64166ZM7.58333 8.125C7.88249 8.125 8.125 8.36751 8.125 8.66666V9.75C8.125 10.0492 7.88249 10.2917 7.58333 10.2917H5.95833C5.36002 10.2917 4.875 9.80664 4.875 9.20833C4.875 8.61002 5.36002 8.125 5.95833 8.125H7.58333Z" fill="#6E7583"/>
</svg>
