<svg width="24" height="24" viewBox="0 0 24 24" fill="none" xmlns="http://www.w3.org/2000/svg">
<path d="M12 3C12.5523 3 13 3.44772 13 4C13 4.52718 12.5921 4.95908 12.0746 4.99726L12 5H7C5.3808 5 4.06121 6.28279 4.00207 7.88753L4 8V17C4 18.6192 5.28279 19.9388 6.88753 19.9979L7 20H16C17.6192 20 18.9388 18.7172 18.9979 17.1125L19 17V12C19 11.4477 19.4477 11 20 11C20.5272 11 20.9591 11.4079 20.9973 11.9254L21 12V17C21 19.7146 18.8367 21.924 16.14 21.9981L16 22H7C4.28538 22 2.07603 19.8367 2.00192 17.14L2 17V8C2 5.28538 4.16334 3.07603 6.86005 3.00192L7 3H12ZM18.2178 4.30514L19.6949 5.78217C19.8988 5.98611 19.8988 6.31675 19.6949 6.52069L11.7249 14.4906C11.381 14.8346 10.9617 15.0937 10.5002 15.2475L8.27494 15.9893C8.1655 16.0258 8.0472 15.9666 8.01072 15.8572C7.99643 15.8143 7.99643 15.7679 8.01072 15.7251L8.75248 13.4998C8.9063 13.0383 9.16545 12.619 9.5094 12.2751L17.4793 4.30514C17.6832 4.10121 18.0139 4.10121 18.2178 4.30514ZM21.5411 2.45885C22.153 3.07066 22.153 4.06259 21.5411 4.6744L20.8026 5.41292C20.5987 5.61685 20.268 5.61685 20.0641 5.41292L18.5871 3.93589C18.3831 3.73195 18.3831 3.40131 18.5871 3.19737L19.3256 2.45885C19.9374 1.84705 20.9293 1.84705 21.5411 2.45885Z" fill="currentColor"/>
</svg>
