<svg width="20" height="20" viewBox="0 0 20 20" fill="none" xmlns="http://www.w3.org/2000/svg">
<circle cx="10" cy="10" r="9.5" stroke="white"/>
<path fill-rule="evenodd" clip-rule="evenodd" d="M7.56456 12.7273C7.13068 12.7273 6.77896 13.1343 6.77896 13.6364C6.77896 14.1385 7.13068 14.5455 7.56456 14.5455H12.2782C12.712 14.5455 13.0638 14.1385 13.0638 13.6364C13.0638 13.1343 12.712 12.7273 12.2782 12.7273H7.56456ZM5.4696 9.09101C5.03573 9.09101 4.684 9.49802 4.684 10.0001C4.684 10.5022 5.03573 10.9092 5.4696 10.9092H14.3731C14.8069 10.9092 15.1587 10.5022 15.1587 10.0001C15.1587 9.49802 14.8069 9.09101 14.3731 9.09101H5.4696ZM4.42198 5.45459C3.9881 5.45459 3.63638 5.8616 3.63638 6.36368C3.63638 6.86576 3.9881 7.27278 4.42198 7.27278H15.578C16.0119 7.27278 16.3636 6.86576 16.3636 6.36368C16.3636 5.8616 16.0119 5.45459 15.578 5.45459L4.42198 5.45459Z" fill="white"/>
</svg>
