<svg width="52" height="52" viewBox="0 0 52 52" fill="none" xmlns="http://www.w3.org/2000/svg">
<g opacity="0.78" filter="url(#filter0_d_78_2260)">
<rect x="6" y="7" width="40" height="40" rx="20" fill="#34A853"/>
<path d="M25.475 17.3923C21.2925 17.6636 18.125 21.3298 18.125 25.5211V31.3748C18.125 32.8273 19.2975 33.9998 20.75 33.9998H21.625C22.5875 33.9998 23.375 33.2123 23.375 32.2498V28.7498C23.375 27.7873 22.5875 26.9998 21.625 26.9998H19.875V25.5036C19.875 22.1436 22.465 19.2211 25.8162 19.1248C29.29 19.0286 32.125 21.8023 32.125 25.2498V26.9998H30.375C29.4125 26.9998 28.625 27.7873 28.625 28.7498V32.2498C28.625 33.2123 29.4125 33.9998 30.375 33.9998H32.125V34.8748H26.875C26.3938 34.8748 26 35.2686 26 35.7498C26 36.2311 26.3938 36.6248 26.875 36.6248H31.25C32.7025 36.6248 33.875 35.4523 33.875 33.9998V25.2498C33.875 20.7261 30.06 17.0948 25.475 17.3923Z" fill="white"/>
</g>
<defs>
<filter id="filter0_d_78_2260" x="0" y="0" width="52" height="52" filterUnits="userSpaceOnUse" color-interpolation-filters="sRGB">
<feFlood flood-opacity="0" result="BackgroundImageFix"/>
<feColorMatrix in="SourceAlpha" type="matrix" values="0 0 0 0 0 0 0 0 0 0 0 0 0 0 0 0 0 0 127 0" result="hardAlpha"/>
<feOffset dy="-1"/>
<feGaussianBlur stdDeviation="3"/>
<feComposite in2="hardAlpha" operator="out"/>
<feColorMatrix type="matrix" values="0 0 0 0 0 0 0 0 0 0 0 0 0 0 0 0 0 0 0.25 0"/>
<feBlend mode="normal" in2="BackgroundImageFix" result="effect1_dropShadow_78_2260"/>
<feBlend mode="normal" in="SourceGraphic" in2="effect1_dropShadow_78_2260" result="shape"/>
</filter>
</defs>
</svg>
