<svg width="22" height="20" viewBox="0 0 22 20" fill="none" xmlns="http://www.w3.org/2000/svg">
<path fill-rule="evenodd" clip-rule="evenodd" d="M11.6993 0.52042C11.2896 0.15986 10.6765 0.15986 10.2668 0.52042L0.500205 9.2179C0.0812337 9.62107 0.0534939 10.2833 0.437274 10.7202C0.821055 11.1571 1.48021 11.2138 1.93264 10.8487L2.3016 10.5225V16.4884C2.3016 18.2898 3.75916 19.75 5.55715 19.75H8.81269C9.41202 19.75 9.89787 19.2633 9.89787 18.6628V15.0634C9.89787 14.463 10.3837 13.9763 10.9831 13.9763C11.2746 13.9803 11.5523 14.1018 11.7535 14.3133C11.9587 14.5081 12.0728 14.7803 12.0682 15.0634V18.6628C12.0682 19.2633 12.5541 19.75 13.1534 19.75H16.409C18.2069 19.75 19.6645 18.2898 19.6645 16.4884V10.5225L20.0335 10.8487C20.4832 11.2444 21.1677 11.2006 21.5636 10.7508C21.9585 10.3003 21.9148 9.61446 21.4659 9.2179L11.6993 0.52042ZM17.4941 16.4884C17.4941 17.0889 17.0083 17.5756 16.409 17.5756H14.2386V15.0634C14.2386 13.2621 12.781 11.8019 10.9831 11.8019C9.18506 11.8019 7.72751 13.2621 7.72751 15.0634V17.5756H5.55715C4.95782 17.5756 4.47197 17.0889 4.47197 16.4884V8.58733L10.9831 2.79264L17.4941 8.58733V16.4884Z" fill="#6E7583"/>
</svg>
