<svg width="24" height="23" viewBox="0 0 24 23" fill="none" xmlns="http://www.w3.org/2000/svg">
<path fill-rule="evenodd" clip-rule="evenodd" d="M12.0001 5.05834L21.3305 13.6478L21.3309 18.7371C21.3309 20.7006 19.8318 22.3008 17.9564 22.3725L17.825 22.375H15.4857C14.8696 22.375 14.3648 21.8803 14.3202 21.2529L14.317 21.1624V18.356C14.317 17.0618 13.3347 16.0052 12.1001 15.9423L11.9837 15.9394C10.7302 15.9394 9.70992 16.9567 9.64923 18.2354L9.64638 18.356V21.1624C9.64638 21.8016 9.16964 22.3254 8.56494 22.3717L8.47772 22.375H6.13842C4.24613 22.375 2.70399 20.8195 2.63487 18.8735L2.63229 18.7371V13.6823L12.0001 5.05834ZM11.2104 0.926623C11.6256 0.548116 12.2349 0.525851 12.673 0.859827L12.753 0.926623L23.2709 10.6277C23.7544 11.07 23.8015 11.835 23.3761 12.3375C23.0137 12.7639 22.4267 12.8631 21.9613 12.6122L12.7751 4.15519L12.6949 4.0876C12.283 3.77079 11.7171 3.7708 11.3052 4.08763L11.225 4.15522L2.14554 12.5145C1.66414 12.8447 1.01333 12.7615 0.62471 12.3033C0.233161 11.8416 0.239365 11.1544 0.624744 10.701L0.692481 10.6277L11.2104 0.926623Z" fill="white"/>
</svg>
