<svg width="26" height="26" viewBox="0 0 26 26" fill="none" xmlns="http://www.w3.org/2000/svg">
<path fill-rule="evenodd" clip-rule="evenodd" d="M13.5687 2.16666C15.7674 2.16666 17.5499 3.9536 17.5499 6.15789L17.5498 7.86825L18.6874 7.86842C20.5721 7.86842 22.0999 9.40008 22.0999 11.2895V20.4123C22.0999 22.3017 20.5721 23.8333 18.6874 23.8333H7.3124C5.42773 23.8333 3.8999 22.3017 3.8999 20.4123V11.2895C3.8999 9.40008 5.42773 7.86842 7.3124 7.86842L8.44987 7.86825L8.4499 6.15789C8.4499 3.9536 10.2324 2.16666 12.4312 2.16666H13.5687ZM18.6874 10.1491H7.3124C6.68418 10.1491 6.1749 10.6597 6.1749 11.2895V20.4123C6.1749 21.0421 6.68418 21.5526 7.3124 21.5526H18.6874C19.3156 21.5526 19.8249 21.0421 19.8249 20.4123V11.2895C19.8249 10.6597 19.3156 10.1491 18.6874 10.1491ZM12.9999 12.4298C14.2564 12.4298 15.2749 13.4509 15.2749 14.7105C15.2749 15.5547 14.8174 16.2917 14.1375 16.6861L14.1374 18.1316C14.1374 18.7614 13.6281 19.2719 12.9999 19.2719C12.3717 19.2719 11.8624 18.7614 11.8624 18.1316L11.8623 16.6861C11.1824 16.2917 10.7249 15.5547 10.7249 14.7105C10.7249 13.4509 11.7435 12.4298 12.9999 12.4298ZM13.5687 4.44737H12.4312C11.4888 4.44737 10.7249 5.21319 10.7249 6.15789V7.86842H15.2749V6.15789C15.2749 5.21319 14.511 4.44737 13.5687 4.44737Z" fill="#6E7583"/>
</svg>
