<svg width="26" height="26" viewBox="0 0 26 26" fill="none" xmlns="http://www.w3.org/2000/svg">
<path fill-rule="evenodd" clip-rule="evenodd" d="M18.9532 18.4167V20.5833C18.9532 22.3783 17.4986 23.8333 15.7042 23.8333H5.95731C4.1629 23.8333 2.70825 22.3783 2.70825 20.5833V5.41667C2.70825 3.62175 4.1629 2.16667 5.95731 2.16667H15.7042C17.4986 2.16667 18.9532 3.62175 18.9532 5.41667V7.58334C18.9532 8.18165 18.4683 8.66667 17.8702 8.66667C17.2721 8.66667 16.7872 8.18165 16.7872 7.58334V5.41667C16.7872 4.81836 16.3023 4.33334 15.7042 4.33334H5.95731C5.35917 4.33334 4.87429 4.81836 4.87429 5.41667V20.5833C4.87429 21.1816 5.35917 21.6667 5.95731 21.6667H15.7042C16.3023 21.6667 16.7872 21.1816 16.7872 20.5833V18.4167C16.7872 17.8184 17.2721 17.3333 17.8702 17.3333C18.4683 17.3333 18.9532 17.8184 18.9532 18.4167ZM20.8052 10.0642C20.3805 9.63937 19.692 9.63937 19.2673 10.0642C18.8426 10.489 18.8426 11.1777 19.2673 11.6025L19.5922 11.9167H12.4551C11.857 11.9167 11.3721 12.4017 11.3721 13C11.3721 13.5983 11.857 14.0833 12.4551 14.0833H19.5922L19.2673 14.3975C19.0623 14.6009 18.9469 14.8778 18.9469 15.1667C18.9469 15.4555 19.0623 15.7324 19.2673 15.9358C19.4707 16.1409 19.7475 16.2563 20.0362 16.2563C20.325 16.2563 20.6018 16.1409 20.8052 15.9358L22.9712 13.7692C23.1763 13.5658 23.2916 13.2889 23.2916 13C23.2916 12.7111 23.1763 12.4343 22.9712 12.2308L20.8052 10.0642Z" fill="#6E7583"/>
</svg>
