<svg width="23" height="23" viewBox="0 0 23 23" fill="none" xmlns="http://www.w3.org/2000/svg">
<path fill-rule="evenodd" clip-rule="evenodd" d="M9.90532 3.3101C10.8365 2.68916 12.0396 2.66699 12.9903 3.24357L13.0948 3.3101L19.3764 7.49868C20.4048 8.18439 21.0371 9.32202 21.081 10.5519L21.0834 10.6889V16.3389C21.0834 18.4164 19.4313 20.1081 17.3695 20.1712L17.2501 20.173H5.75008C3.67294 20.173 1.98165 18.5206 1.91857 16.4583L1.91675 16.3389V10.6889C1.91675 9.4527 2.51237 8.2954 3.51111 7.57671L3.62373 7.49868L9.90532 3.3101ZM12.0317 4.90519C11.7328 4.70588 11.3498 4.69164 11.0389 4.86248L10.9685 4.90519L4.68691 9.09377C4.18506 9.42841 3.87183 9.97831 3.83672 10.5762L3.83341 10.6889V16.3389C3.83341 17.3655 4.64032 18.2037 5.65442 18.2536L5.75008 18.2559H17.2501C18.2766 18.2559 19.1146 17.4489 19.1644 16.4345L19.1667 16.3389V10.6889C19.1667 10.0856 18.883 9.51989 18.4051 9.159L18.3133 9.09377L12.0317 4.90519ZM17.0768 10.9965C17.3652 11.4085 17.2844 11.9685 16.9039 12.2838L16.8413 12.3315L13.1488 14.9168C12.193 15.586 10.9318 15.609 9.95492 14.986L9.85138 14.9168L6.15885 12.3315C5.72525 12.0279 5.6198 11.4302 5.92332 10.9965C6.21166 10.5845 6.76537 10.4687 7.19177 10.7185L7.25798 10.761L10.9505 13.3463C11.2585 13.5619 11.6616 13.5763 11.9823 13.3894L12.0497 13.3463L15.7422 10.761C16.1758 10.4574 16.7733 10.5629 17.0768 10.9965Z" fill="white"/>
</svg>
