<svg width="28" height="23" viewBox="0 0 28 23" fill="none" xmlns="http://www.w3.org/2000/svg">
<g clip-path="url(#clip0_135_3871)">
<path fill-rule="evenodd" clip-rule="evenodd" d="M8.29438 7.41491H18.5636C19.0746 7.41491 19.4902 7.83192 19.4902 8.34472V11.6206C19.4902 12.1372 19.0728 12.558 18.5561 12.558H8.34492C7.8002 12.558 7.35843 12.1147 7.35843 11.5681V8.35411C7.35843 7.83568 7.77773 7.41304 8.29625 7.41304L8.29438 7.41491ZM5.48279 20.2519L5.30121 20.8549C5.25816 21.0014 5.36673 21.1479 5.51835 21.1479H19.5052C20.0274 21.1178 20.4168 20.9788 20.677 20.7309C20.9316 20.4886 21.0738 20.126 21.1056 19.6433V6.89836C21.1056 6.31981 20.6377 5.85021 20.0611 5.85021H6.72573C6.12485 5.85021 5.63815 6.33859 5.63815 6.94156V18.9915C5.63815 19.5494 5.64377 19.7128 5.48466 20.25L5.48279 20.2519ZM2.45967 22.9981C2.37544 23.0037 2.28933 23.0037 2.20509 23C1.86441 22.9793 1.52934 22.8741 1.22609 22.6957C0.563441 22.3012 0.0505412 21.5499 0.00374379 20.5675C0.00374379 20.5524 0 20.5355 0 20.5205V7.29658C0 7.08995 0.166599 6.92465 0.370636 6.92465H3.50232C3.67641 6.92465 3.8168 6.78377 3.8168 6.60908V5.78259C3.8168 5.21155 4.49255 3.99811 5.45096 3.99811H21.1974C22.2962 3.99811 23 5.22846 23 5.82015V20.5393C23 20.5599 22.9981 20.5787 22.9963 20.5975C22.9457 21.3301 22.7061 21.903 22.2774 22.3125C21.8507 22.7201 21.2479 22.9474 20.4673 22.9925C20.4523 22.9944 20.4355 22.9962 20.4187 22.9962H2.46154L2.45967 22.9981ZM2.82469 20.977C2.83592 20.9732 2.84903 20.9713 2.86213 20.9713H2.94824C3.04183 20.9582 3.13356 20.9244 3.21966 20.8642C3.74379 20.4998 3.81493 19.6114 3.81493 18.907V9.10172C3.81493 8.89697 3.67079 8.72979 3.49296 8.72979H2.18825C2.01042 8.72979 1.86628 8.89697 1.86628 9.10172V19.5268C1.88874 20.1204 2.11712 20.5712 2.41288 20.8023C2.54016 20.9037 2.68056 20.9619 2.81908 20.9732H2.82469V20.977ZM8.57516 8.76924H9.18353C9.18353 8.76924 9.18914 8.76924 9.19101 8.773L9.96785 10.0822C9.96785 10.0822 9.98657 10.0879 9.98657 10.0766V8.77675C9.98657 8.77675 9.99032 8.76736 9.99593 8.76736H10.5968C10.5968 8.76736 10.6062 8.77112 10.6062 8.77675V11.1905C10.6062 11.1905 10.6024 11.1999 10.5968 11.1999H9.99219C9.99219 11.1999 9.98657 11.1999 9.9847 11.1961L9.21348 9.8944C9.21348 9.8944 9.19476 9.88877 9.19476 9.90004V11.1924C9.19476 11.1924 9.19102 11.2018 9.1854 11.2018H8.58826C8.58826 11.2018 8.57891 11.198 8.57891 11.1924V8.76924H8.57516ZM11.1434 8.76924H12.8899C12.8899 8.76924 12.8992 8.773 12.8992 8.77863V9.28016C12.8992 9.28016 12.8955 9.28956 12.8899 9.28956H11.8117C11.8117 9.28956 11.8023 9.29331 11.8023 9.29895V9.66711C11.8023 9.66711 11.8061 9.67651 11.8117 9.67651H12.8094C12.8094 9.67651 12.8188 9.68026 12.8188 9.6859V10.1611C12.8188 10.1611 12.815 10.1705 12.8094 10.1705H11.8117C11.8117 10.1705 11.8023 10.1743 11.8023 10.1799V10.6401C11.8023 10.6401 11.8061 10.6495 11.8117 10.6495H12.9236C12.9236 10.6495 12.9329 10.6533 12.9329 10.6589V11.1905C12.9329 11.1905 12.9292 11.1999 12.9236 11.1999H11.1546C11.1546 11.1999 11.1453 11.1961 11.1453 11.1905V8.76548L11.1434 8.76924ZM13.1725 8.76924H13.7865C13.7865 8.76924 13.7959 8.773 13.7959 8.77675L14.0093 10.0804C14.0093 10.0898 14.0261 10.0916 14.028 10.0804L14.3443 8.77488C14.3443 8.77488 14.35 8.76736 14.3537 8.76736H14.9565C14.9565 8.76736 14.9639 8.77112 14.9658 8.77488L15.2822 10.0822C15.284 10.0916 15.299 10.0916 15.3009 10.0822L15.5162 8.77675C15.5162 8.77675 15.5218 8.76924 15.5255 8.76924H16.1264C16.1264 8.76924 16.1376 8.77488 16.1358 8.78051L15.6715 11.1943C15.6715 11.1943 15.6659 11.2018 15.6622 11.2018H15.0351C15.0351 11.2018 15.0276 11.198 15.0257 11.1943L14.6644 9.70844C14.6626 9.69905 14.6476 9.69905 14.6457 9.70844L14.2863 11.1943C14.2863 11.1943 14.2807 11.2018 14.277 11.2018H13.6499C13.6499 11.2018 13.6405 11.198 13.6405 11.1943L13.1725 8.76924ZM16.3473 10.3997L16.9613 10.3565C16.9613 10.3565 16.9706 10.3602 16.9706 10.3659C16.9837 10.4767 17.0118 10.5612 17.0511 10.6195C17.1185 10.7171 17.214 10.766 17.3413 10.766C17.4349 10.766 17.506 10.7416 17.5565 10.6908C17.6071 10.6401 17.6314 10.5819 17.6314 10.5161C17.6314 10.4504 17.6071 10.3959 17.5584 10.3471C17.5116 10.2964 17.3974 10.2513 17.2233 10.2062C16.9351 10.133 16.731 10.0334 16.6093 9.91131C16.4858 9.78733 16.424 9.63142 16.424 9.44358C16.424 9.31961 16.4558 9.20127 16.5176 9.09045C16.5813 8.97774 16.6767 8.89134 16.8021 8.82935C16.9294 8.76548 17.1035 8.73543 17.3244 8.73543C17.5958 8.73543 17.8017 8.79366 17.9459 8.90824C18.0863 9.02095 18.1705 9.20315 18.1986 9.44922C18.1986 9.45486 18.1948 9.46049 18.1892 9.46049L17.5921 9.50182C17.5921 9.50182 17.5827 9.49806 17.5827 9.4943C17.5659 9.38911 17.5322 9.31022 17.4798 9.26138C17.4255 9.21066 17.3544 9.18624 17.2608 9.18624C17.1859 9.18624 17.1279 9.20503 17.0885 9.24072C17.0492 9.27641 17.0305 9.32337 17.0305 9.37596C17.0305 9.41353 17.0455 9.44922 17.0773 9.47927C17.1073 9.51121 17.1803 9.54126 17.2963 9.56944C17.5827 9.64082 17.7886 9.7122 17.9103 9.78358C18.0339 9.85683 18.1237 9.94512 18.1799 10.0541C18.236 10.163 18.2641 10.2814 18.2641 10.4128C18.2641 10.5687 18.2267 10.7134 18.1518 10.8449C18.0769 10.9764 17.9702 11.0759 17.8354 11.1454C17.7007 11.2149 17.5303 11.2487 17.3244 11.2487C16.9631 11.2487 16.7123 11.168 16.5738 11.0083C16.4409 10.8467 16.3623 10.6458 16.3435 10.4016L16.3473 10.3997ZM7.67103 15.9936C7.48197 15.9936 7.33222 15.6442 7.36217 15.2422C7.38463 14.9154 7.53439 14.69 7.6935 14.69C8.47033 14.69 11.6507 14.69 12.4257 14.69C12.5848 14.69 12.7364 14.9135 12.7589 15.2422C12.7869 15.6442 12.6372 15.9917 12.45 15.9917H7.67103V15.9936ZM13.9363 15.9936C13.7453 15.9936 13.5918 15.6479 13.6199 15.2441C13.6424 14.9116 13.7959 14.6843 13.9606 14.6843C14.7955 14.6843 18.3128 14.6843 19.1476 14.6843C19.3105 14.6843 19.4659 14.9135 19.4883 15.2441C19.5164 15.6479 19.3629 15.9936 19.172 15.9936H13.9363ZM13.9363 18.2007C13.7453 18.2007 13.5918 17.8438 13.6199 17.4268C13.6424 17.083 13.7959 16.8482 13.9606 16.8482C14.7955 16.8482 18.3128 16.8482 19.1476 16.8482C19.3105 16.8482 19.4659 17.0849 19.4883 17.4268C19.5164 17.8438 19.3629 18.2007 19.172 18.2007H13.9363ZM13.9363 20.2294C13.7453 20.2294 13.5918 19.9081 13.6199 19.5306C13.6424 19.2206 13.7959 19.0084 13.9606 19.0084C14.7955 19.0084 18.3128 19.0084 19.1476 19.0084C19.3105 19.0084 19.4659 19.2206 19.4883 19.5306C19.5164 19.9063 19.3629 20.2294 19.172 20.2294H13.9363ZM7.67103 20.2294C7.48197 20.2294 7.33222 19.9044 7.36217 19.5287C7.38463 19.2244 7.53439 19.014 7.6935 19.014C8.47033 19.014 11.6507 19.014 12.4257 19.014C12.5848 19.014 12.7364 19.2225 12.7589 19.5287C12.7869 19.9025 12.6372 20.2275 12.45 20.2275H7.67103V20.2294ZM7.67103 18.2007C7.48197 18.2007 7.33222 17.84 7.36217 17.423C7.38463 17.0849 7.53439 16.852 7.6935 16.852C8.47033 16.852 11.6507 16.852 12.4257 16.852C12.5848 16.852 12.7364 17.083 12.7589 17.423C12.7869 17.8381 12.6372 18.1988 12.45 18.1988H7.67103V18.2007Z" fill="currentColor"/>
</g>
<defs>
<clipPath id="clip0_135_3871">
<rect width="23" height="19" fill="white" transform="translate(0 4)"/>
</clipPath>
</defs>
</svg>
