<svg width="28" height="28" viewBox="0 0 28 28" fill="none" xmlns="http://www.w3.org/2000/svg">
<path d="M11.3885 19.7402L11.356 20.0114C11.3391 20.1518 11.4393 20.2793 11.5797 20.2962L11.7627 20.3068C11.8177 20.3098 11.8597 20.3568 11.8567 20.4117L11.8363 20.5838C11.8194 20.7242 11.9196 20.8517 12.06 20.8685L12.243 20.8792C12.2979 20.8822 12.34 20.9292 12.337 20.9841L12.3166 21.1562C12.2997 21.2966 12.3998 21.4241 12.5402 21.4409L12.7233 21.4515C12.7782 21.4546 12.8203 21.5016 12.8173 21.5565L12.7968 21.7286C12.78 21.869 12.8801 21.9965 13.0205 22.0133L13.3097 22.0298L13.4698 22.2206C13.9119 22.7474 13.8432 23.5329 13.3163 23.975C12.7894 24.4171 12.0039 24.3484 11.5618 23.8215L8.95714 20.7171L8.42458 20.9658C6.46753 21.8784 4.14821 21.0649 3.18291 19.15L3.12873 19.0383L2.70769 18.1354C1.79511 16.1783 2.60862 13.859 4.52353 12.8937L4.63522 12.8395L8.87506 10.8624C10.4957 10.1067 11.7618 8.75859 12.4158 7.0995L12.4835 6.92057L13.0361 5.39748C13.5116 4.08685 14.9596 3.40987 16.2702 3.8854C17.0363 4.16337 17.6211 4.79409 17.8405 5.57898L18.0467 6.30516L18.1866 6.78349C18.6708 8.41904 19.0996 9.64888 19.4671 10.463L19.5668 10.677L19.6815 10.9087C20.0887 11.7109 20.7457 12.8081 21.649 14.1916L22.0722 14.8335L22.5103 15.487C23.3001 16.656 22.9926 18.2439 21.8236 19.0337C21.1812 19.4677 20.3786 19.5852 19.6421 19.3584L19.52 19.3174L17.9882 18.7599C16.3101 18.1491 14.4642 18.2062 12.8301 18.9144L12.6558 18.9927L11.2939 19.6274L11.3885 19.7402ZM11.3147 22.4033L10.9331 22.7235C10.8804 22.7677 10.8735 22.8462 10.9177 22.8989C10.9556 22.9441 11.0187 22.9556 11.0692 22.9301L11.0932 22.9143L11.4748 22.5941C11.5274 22.5499 11.5343 22.4713 11.4901 22.4186C11.4459 22.3659 11.3673 22.3591 11.3147 22.4033ZM11.1853 21.8616L10.6129 22.3419C10.5602 22.3861 10.5533 22.4646 10.5975 22.5173C10.6354 22.5625 10.6985 22.574 10.749 22.5485L10.773 22.5327L11.3454 22.0524C11.398 22.0082 11.4049 21.9296 11.3607 21.8769C11.3165 21.8243 11.2379 21.8174 11.1853 21.8616ZM15.5265 5.73959C15.2902 5.68587 15.0461 5.8 14.9358 6.01576L14.9091 6.07707L14.3565 7.60016C13.9326 8.76865 13.2751 9.82405 12.4364 10.7092L15.0725 16.3625C16.2026 16.2955 17.3446 16.4425 18.4365 16.8063L18.6697 16.8875L20.2014 17.445C20.3706 17.5066 20.559 17.4834 20.7082 17.3826C20.9653 17.2089 21.033 16.8596 20.8592 16.6024L20.405 15.9248L20.1084 15.476C18.9999 13.7884 18.221 12.4777 17.7665 11.5308L17.6532 11.2876L17.5303 11.0068L17.3979 10.6861C17.0411 9.79651 16.6521 8.63138 16.2276 7.18494L16.0708 6.64354L15.9215 6.11531C15.8811 5.9706 15.7817 5.85076 15.6493 5.78382L15.5906 5.75845L15.5265 5.73959ZM10.8651 21.48L10.2927 21.9603C10.24 22.0045 10.2331 22.083 10.2773 22.1357C10.3152 22.1809 10.3784 22.1924 10.4288 22.1669L10.4528 22.1511L11.0252 21.6708C11.0779 21.6266 11.0847 21.548 11.0405 21.4953C10.9963 21.4427 10.9178 21.4358 10.8651 21.48ZM10.3541 21.2585L9.97249 21.5787C9.9198 21.6229 9.91293 21.7015 9.95714 21.7541C9.99503 21.7993 10.0582 21.8108 10.1086 21.7853L10.1326 21.7695L10.5142 21.4493C10.5669 21.4051 10.5737 21.3265 10.5295 21.2739C10.4853 21.2212 10.4068 21.2143 10.3541 21.2585ZM11.2697 11.7434C10.857 12.0496 10.4163 12.3214 9.95153 12.5548L9.71714 12.6683L5.4773 14.6454C4.51019 15.0963 4.07514 16.2247 4.47372 17.2021L4.51354 17.2933L4.93458 18.1962C5.38555 19.1633 6.51397 19.5984 7.49134 19.1998L7.5825 19.16L11.8138 17.1869C12.3682 16.9284 12.9432 16.7292 13.5295 16.5898L11.2697 11.7434ZM8.13107 16.211C8.2308 16.1645 8.34935 16.2076 8.39586 16.3074L8.98531 17.5715C9.03182 17.6712 8.98867 17.7897 8.88894 17.8362C8.7892 17.8828 8.67065 17.8396 8.62415 17.7399L8.03469 16.4758C7.98818 16.376 8.03133 16.2575 8.13107 16.211ZM6.74675 16.3069C6.84648 16.2604 6.96503 16.3035 7.01154 16.4033L7.81152 18.1188C7.85802 18.2185 7.81487 18.3371 7.71514 18.3836C7.61541 18.4301 7.49685 18.387 7.45035 18.2872L6.65037 16.5717C6.60387 16.4719 6.64701 16.3534 6.74675 16.3069ZM5.36243 16.4028C5.46216 16.3563 5.58072 16.3994 5.62722 16.4991L6.63772 18.6662C6.68422 18.7659 6.64107 18.8844 6.54134 18.9309C6.44161 18.9775 6.32306 18.9343 6.27655 18.8346L5.26605 16.6676C5.21955 16.5678 5.2627 16.4493 5.36243 16.4028ZM21.4433 9.39879L24.6036 7.92515C24.9776 7.75075 25.4221 7.91256 25.5965 8.28656C25.7709 8.66056 25.6091 9.10513 25.2351 9.27953L22.0749 10.7532C21.7009 10.9276 21.2563 10.7658 21.0819 10.3918C20.9075 10.0178 21.0693 9.57319 21.4433 9.39879ZM22.4925 12.1804L24.9737 12.3974C25.3848 12.4334 25.6889 12.7958 25.6529 13.2069C25.617 13.618 25.2546 13.9221 24.8435 13.8861L22.3623 13.6691C21.9512 13.6331 21.6471 13.2707 21.683 12.8596C21.719 12.4485 22.0814 12.1444 22.4925 12.1804ZM20.6185 8.16148L22.0471 6.12125C22.2838 5.78321 22.2016 5.3173 21.8636 5.08061C21.5256 4.84391 21.0596 4.92606 20.8229 5.2641L19.3944 7.30433C19.1577 7.64237 19.2398 8.10828 19.5779 8.34497C19.9159 8.58167 20.3818 8.49952 20.6185 8.16148Z" 
fill="currentColor"/>
</svg>
