<svg width="16" height="16" viewBox="0 0 16 16" fill="none" xmlns="http://www.w3.org/2000/svg">
<mask id="path-1-outside-1_529_594" maskUnits="userSpaceOnUse" x="0" y="0" width="16" height="16" fill="black">
<rect fill="white" width="16" height="16"/>
<path fill-rule="evenodd" clip-rule="evenodd" d="M2 8C2 11.3137 4.68629 14 8 14C11.3137 14 14 11.3137 14 8C14 4.68629 11.3137 2 8 2C4.68629 2 2 4.68629 2 8ZM5.30731 7.98121L4.65073 8.63004L6.7916 10.7965L11.3493 6.18456L10.6927 5.53572L6.79162 9.48325L5.30731 7.98121Z"/>
</mask>
<path fill-rule="evenodd" clip-rule="evenodd" d="M2 8C2 11.3137 4.68629 14 8 14C11.3137 14 14 11.3137 14 8C14 4.68629 11.3137 2 8 2C4.68629 2 2 4.68629 2 8ZM5.30731 7.98121L4.65073 8.63004L6.7916 10.7965L11.3493 6.18456L10.6927 5.53572L6.79162 9.48325L5.30731 7.98121Z" fill="#4EA800"/>
<path d="M5.30731 7.98121L6.7299 6.57542L5.3241 5.15284L3.90152 6.55863L5.30731 7.98121ZM4.65073 8.63004L3.24494 7.20746L1.82236 8.61325L3.22815 10.0358L4.65073 8.63004ZM6.7916 10.7965L5.36902 12.2023L6.79158 13.6418L8.21416 12.2023L6.7916 10.7965ZM11.3493 6.18456L12.7718 7.59039L14.1776 6.16783L12.7551 4.76201L11.3493 6.18456ZM10.6927 5.53572L12.0985 4.11317L10.676 2.70735L9.27014 4.1299L10.6927 5.53572ZM6.79162 9.48325L5.36903 10.889L6.79159 12.3286L8.21417 10.8891L6.79162 9.48325ZM0 8C0 12.4183 3.58172 16 8 16V12C5.79086 12 4 10.2091 4 8H0ZM8 16C12.4183 16 16 12.4183 16 8H12C12 10.2091 10.2091 12 8 12V16ZM16 8C16 3.58172 12.4183 0 8 0V4C10.2091 4 12 5.79086 12 8H16ZM8 0C3.58172 0 0 3.58172 0 8H4C4 5.79086 5.79086 4 8 4V0ZM3.90152 6.55863L3.24494 7.20746L6.05653 10.0526L6.7131 9.4038L3.90152 6.55863ZM3.22815 10.0358L5.36902 12.2023L8.21419 9.39069L6.07332 7.22425L3.22815 10.0358ZM8.21416 12.2023L12.7718 7.59039L9.92671 4.77874L5.36905 9.39066L8.21416 12.2023ZM12.7551 4.76201L12.0985 4.11317L9.28688 6.95828L9.94344 7.60712L12.7551 4.76201ZM9.27014 4.1299L5.36906 8.07743L8.21417 10.8891L12.1153 6.94155L9.27014 4.1299ZM8.2142 8.07745L6.7299 6.57542L3.88473 9.38701L5.36903 10.889L8.2142 8.07745Z" fill="white" mask="url(#path-1-outside-1_529_594)"/>
</svg>
