<svg width="43" height="43" viewBox="0 0 43 43" fill="none" xmlns="http://www.w3.org/2000/svg">
<g clip-path="url(#clip0_281_3881)">
<path fill-rule="evenodd" clip-rule="evenodd" d="M9.35683 9.36776H18.2051V18.1581H9.35683V9.36776ZM12.5097 5.19297e-06H8.09079C7.03502 -0.00119878 5.98954 0.206962 5.0151 0.612391C4.03307 1.01826 3.14057 1.61275 2.38831 2.36207C1.63756 3.11284 1.04179 4.00334 0.634787 4.98308C0.218958 5.96056 0.00313837 7.01111 1.00145e-05 8.073V13.5215H3.58773V8.073C3.59141 7.48409 3.71055 6.90158 3.93843 6.35832C4.1621 5.81246 4.49232 5.31643 4.90989 4.89909C5.75398 4.05831 6.89809 3.58631 8.09079 3.58684H12.5097V5.19297e-06ZM34.9092 5.19297e-06H32.0229V3.57984H34.9092C35.4994 3.58388 36.0831 3.70274 36.6277 3.92977C37.1728 4.15654 37.6693 4.48559 38.0901 4.89909L38.2129 5.02507C38.5752 5.41725 38.866 5.86965 39.0721 6.36182C39.3016 6.90337 39.4208 7.48505 39.4228 8.073V13.5215H43.0105V8.073C43.0114 5.99411 42.2043 3.99588 40.759 2.49854L40.6292 2.36906C39.8768 1.61996 38.9844 1.0255 38.0025 0.61939C37.0229 0.209732 35.9713 -0.000837855 34.9092 5.19297e-06ZM43 34.927V28.8766H39.4123V34.927C39.4103 35.515 39.291 36.0966 39.0616 36.6382C38.8318 37.1833 38.4983 37.6789 38.0796 38.0974C37.6633 38.5157 37.1683 38.8478 36.6231 39.0748C36.0778 39.3018 35.493 39.4192 34.9022 39.4202H32.0229V43H34.9092C35.9711 42.9992 37.0224 42.7892 38.0028 42.3821C38.9832 41.975 39.8734 41.3787 40.6222 40.6274C41.3717 39.8756 41.9673 38.9854 42.3758 38.0064C42.781 37.0301 42.9895 35.9837 42.9895 34.927H43ZM8.09079 43H12.5097V39.4202H8.09079C7.4994 39.4196 6.91394 39.3025 6.36806 39.0755C5.82218 38.8485 5.32663 38.5161 4.90989 38.0974L4.8187 38.0134C4.42551 37.5998 4.11486 37.1153 3.90336 36.5857C3.6917 36.0582 3.58336 35.4952 3.58422 34.927V28.8766H1.00145e-05V34.927C-0.00162639 35.9551 0.197298 36.9737 0.585688 37.9259C0.972777 38.8872 1.5433 39.7643 2.26557 40.5085L2.37429 40.6309C3.12798 41.3801 4.0216 41.9746 5.00458 42.3806C5.98262 42.7863 7.03159 42.9945 8.09079 42.993V43ZM31.4197 31.4172H33.6677V33.6322H31.4197V31.4172ZM27.085 31.4172H29.3435V33.5168H24.83V29.2091H27.0043V27.022H29.2278V22.6618H31.4934V24.8034H33.6397V27.0185H31.4934V29.2336H27.085V31.4137V31.4172ZM20.39 26.987H22.5749V24.7719H20.4707V22.5568H22.5749V20.3417H20.4251V22.5568H18.1666V20.3417H20.3865V13.7629H22.6416V20.3382H24.8265V22.5533H26.9763V20.3382H29.2313V22.5533H27.085V24.7684H24.83V29.1286H22.6451V33.5273H20.39V26.987ZM31.3846 20.3382H33.6397V22.5533H31.3846V20.3382ZM13.7652 20.3382H16.0202V22.5533H13.7652V20.3382ZM9.35683 20.3382H11.6119V22.5533H9.35683V20.3382ZM20.39 9.36776H22.6451V11.5829H20.39V9.36776ZM9.32176 24.8034H18.1666V33.5938H9.32176V24.8034ZM11.4716 26.945H16.0308V31.4627H11.4716V26.945ZM24.7984 9.37126H33.6397V18.1581H24.7949V9.36776L24.7984 9.37126ZM26.9482 11.5059H31.5074V16.0235H26.9482V11.5024V11.5059ZM11.5172 11.5059H16.0763V16.0235H11.5172V11.5024V11.5059Z" fill="#454D5B"/>
</g>
<defs>
<clipPath id="clip0_281_3881">
<rect width="43" height="43" fill="white"/>
</clipPath>
</defs>
</svg>
