<svg width="26" height="26" viewBox="0 0 26 26" fill="none" xmlns="http://www.w3.org/2000/svg">
<path fill-rule="evenodd" clip-rule="evenodd" d="M13.0001 2.16667C18.9832 2.16667 23.8334 7.01692 23.8334 13C23.8334 18.9831 18.9832 23.8333 13.0001 23.8333C7.017 23.8333 2.16675 18.9831 2.16675 13C2.16675 7.01692 7.017 2.16667 13.0001 2.16667ZM13.0001 4.5264C8.32024 4.5264 4.52648 8.32016 4.52648 13C4.52648 17.6798 8.32024 21.4736 13.0001 21.4736C17.6799 21.4736 21.4737 17.6798 21.4737 13C21.4737 8.32016 17.6799 4.5264 13.0001 4.5264ZM12.9021 16.681C13.5563 16.681 14.1015 17.2263 14.1015 17.8806C14.1015 18.5194 13.5719 19.0802 12.9021 19.0802C12.2324 19.0802 11.7183 18.5193 11.7183 17.8806C11.7183 17.2263 12.248 16.681 12.9021 16.681ZM13.1047 7.3125C15.2074 7.3125 16.7085 8.50143 16.7085 10.169C16.7085 10.8954 16.4233 11.5726 15.9329 12.1975C15.6479 12.5607 15.3559 12.8414 15.0071 13.1239L14.7766 13.3067C14.256 13.7268 14.1226 13.9885 14.0969 14.6466L14.0936 14.7538L14.0916 14.9674C14.0916 15.5277 13.6925 15.8921 12.8866 15.8921C12.0672 15.8921 11.7439 15.5077 11.7439 14.5623C11.7439 13.356 12.1463 12.6162 12.8885 11.9762L13.0033 11.8833L13.4056 11.5696L13.5021 11.4916C13.967 11.1074 14.1738 10.8048 14.1738 10.4339C14.1738 9.86308 13.6144 9.58348 13.1047 9.58348C12.8257 9.58348 12.6352 9.64231 12.4058 9.77851C12.1765 9.91471 12.1 10.0092 11.9835 10.151L11.8374 10.334L11.7712 10.4209C11.5486 10.7204 11.3323 10.8601 10.9707 10.8601C10.3208 10.8601 9.75008 10.3997 9.75008 9.68606C9.75008 8.44941 11.1258 7.3125 13.1047 7.3125Z" fill="#6E7583"/>
</svg>
