<svg width="46" height="39" viewBox="0 0 46 39" fill="none" xmlns="http://www.w3.org/2000/svg">
<g clip-path="url(#clip0_78_2250)">
<path fill-rule="evenodd" clip-rule="evenodd" d="M41.2946 7.36325V23.135C41.2946 29.313 36.6658 29.285 33.7238 29.285H17.6142L12.1325 33.2606C12.5446 33.3539 12.9758 33.4006 13.4167 33.4006H27.4754C27.8875 33.4006 28.29 33.5312 28.6254 33.7739L35.2667 38.6267C36.5317 39.5506 38.3333 38.6734 38.3333 37.1335V33.4006H40.25C43.4221 33.4006 46 30.8902 46 27.8012V12.8694C46 10.1256 43.9683 7.84853 41.2946 7.36325Z" fill="white"/>
<path fill-rule="evenodd" clip-rule="evenodd" d="M32.5833 0C35.7554 0 38.3333 2.51041 38.3333 5.59943V20.5312C38.3333 23.6202 35.7554 26.1307 32.5833 26.1307H18.5246C18.1125 26.1307 17.71 26.2613 17.3746 26.5039L10.7333 31.3568C9.46833 32.2807 7.66667 31.4034 7.66667 29.8636V26.1307H5.75C2.57792 26.1307 0 23.6202 0 20.5312V5.59943C0 2.51041 2.57792 0 5.75 0H32.5833ZM32.5833 3.73295H5.75C4.69583 3.73295 3.83333 4.57286 3.83333 5.59943V20.5312C3.83333 21.5578 4.69583 22.3977 5.75 22.3977H9.58333C10.6375 22.3977 11.5 23.2376 11.5 24.2642V26.1307L15.0746 23.5176C16.0712 22.7897 17.2787 22.3977 18.5246 22.3977H32.5833C33.6375 22.3977 34.5 21.5578 34.5 20.5312V5.59943C34.5 4.57286 33.6375 3.73295 32.5833 3.73295ZM11.5 11.1989C12.5542 11.1989 13.4167 12.0388 13.4167 13.0653C13.4167 14.0919 12.5542 14.9318 11.5 14.9318C10.4458 14.9318 9.58333 14.0919 9.58333 13.0653C9.58333 12.0388 10.4458 11.1989 11.5 11.1989ZM19.1667 11.1989C20.2208 11.1989 21.0833 12.0388 21.0833 13.0653C21.0833 14.0919 20.2208 14.9318 19.1667 14.9318C18.1125 14.9318 17.25 14.0919 17.25 13.0653C17.25 12.0388 18.1125 11.1989 19.1667 11.1989ZM26.8333 11.1989C27.8875 11.1989 28.75 12.0388 28.75 13.0653C28.75 14.0919 27.8875 14.9318 26.8333 14.9318C25.7792 14.9318 24.9167 14.0919 24.9167 13.0653C24.9167 12.0388 25.7792 11.1989 26.8333 11.1989Z" fill="white"/>
</g>
<defs>
<clipPath id="clip0_78_2250">
<rect width="46" height="39" fill="white"/>
</clipPath>
</defs>
</svg>
