<svg width="26" height="25" viewBox="0 0 26 25" fill="none" xmlns="http://www.w3.org/2000/svg">
<g clip-path="url(#clip0_135_3548)">
<path fill-rule="evenodd" clip-rule="evenodd" d="M20.6472 8.776V16.8641C20.6472 20.0323 18.3328 20.0179 16.8618 20.0179H8.807L6.06616 22.0567C6.2722 22.1045 6.48783 22.1285 6.70825 22.1285H13.7376C13.9437 22.1285 14.1449 22.1955 14.3126 22.3199L17.6332 24.8085C18.2657 25.2823 19.1666 24.8325 19.1666 24.0428V22.1285H20.1249C21.711 22.1285 22.9999 20.8411 22.9999 19.257V11.5996C22.9999 10.1926 21.9841 9.02486 20.6472 8.776Z" fill="currentColor"/>
<path fill-rule="evenodd" clip-rule="evenodd" d="M16.2917 5C17.8777 5 19.1667 6.28739 19.1667 7.8715V15.5288C19.1667 17.1129 17.8777 18.4003 16.2917 18.4003H9.26229C9.05625 18.4003 8.855 18.4673 8.68729 18.5918L5.36667 21.0804C4.73417 21.5542 3.83333 21.1043 3.83333 20.3147V18.4003H2.875C1.28896 18.4003 0 17.1129 0 15.5288V7.8715C0 6.28739 1.28896 5 2.875 5H16.2917ZM16.2917 6.91433H2.875C2.34792 6.91433 1.91667 7.34506 1.91667 7.8715V15.5288C1.91667 16.0553 2.34792 16.486 2.875 16.486H4.79167C5.31875 16.486 5.75 16.9167 5.75 17.4432V18.4003L7.53729 17.0603C8.03563 16.687 8.63938 16.486 9.26229 16.486H16.2917C16.8188 16.486 17.25 16.0553 17.25 15.5288V7.8715C17.25 7.34506 16.8188 6.91433 16.2917 6.91433ZM5.75 10.743C6.27708 10.743 6.70833 11.1737 6.70833 11.7002C6.70833 12.2266 6.27708 12.6573 5.75 12.6573C5.22292 12.6573 4.79167 12.2266 4.79167 11.7002C4.79167 11.1737 5.22292 10.743 5.75 10.743ZM9.58333 10.743C10.1104 10.743 10.5417 11.1737 10.5417 11.7002C10.5417 12.2266 10.1104 12.6573 9.58333 12.6573C9.05625 12.6573 8.625 12.2266 8.625 11.7002C8.625 11.1737 9.05625 10.743 9.58333 10.743ZM13.4167 10.743C13.9438 10.743 14.375 11.1737 14.375 11.7002C14.375 12.2266 13.9438 12.6573 13.4167 12.6573C12.8896 12.6573 12.4583 12.2266 12.4583 11.7002C12.4583 11.1737 12.8896 10.743 13.4167 10.743Z" fill="currentColor"/>
</g>
<defs>
<clipPath id="clip0_135_3548">
<rect width="26" height="25" fill="white"/>
</clipPath>
</defs>
</svg>
