<svg width="24" height="25" viewBox="0 0 24 25" fill="none" xmlns="http://www.w3.org/2000/svg">
<path fill-rule="evenodd" clip-rule="evenodd" d="M16.1671 16.4274H17.2297L22.9326 21.9941C23.484 22.5298 23.484 23.4053 22.9326 23.9411C22.3811 24.4768 21.4799 24.4768 20.9285 23.9411L15.2121 18.3875V17.3552L14.849 16.9893C12.9659 18.5574 10.3969 19.3676 7.6665 18.9233C3.92732 18.3091 0.941357 15.2775 0.484047 11.6187C-0.215367 6.09133 4.57294 1.43943 10.2624 2.11892C14.0285 2.5632 17.149 5.46411 17.7811 9.09678C18.2384 11.7494 17.4045 14.2452 15.7905 16.0746L16.1671 16.4274ZM3.10686 10.5472C3.10686 13.8009 5.81036 16.4274 9.15949 16.4274C12.5086 16.4274 15.2121 13.8009 15.2121 10.5472C15.2121 7.29351 12.5086 4.66701 9.15949 4.66701C5.81036 4.66701 3.10686 7.29351 3.10686 10.5472Z" fill="#6E7583"/>
</svg>
