<svg width="10" height="10" viewBox="0 0 10 10" fill="none" xmlns="http://www.w3.org/2000/svg">
<path fill-rule="evenodd" clip-rule="evenodd" d="M3.51402 3.33962L1.19883 3.73755L1.16574 3.74446C0.841529 3.82465 0.719481 4.22925 0.95821 4.47328L2.59576 6.1473L2.26138 8.4579L2.25786 8.49027C2.23363 8.82192 2.58364 9.06292 2.89134 8.91261L4.99992 7.88241L7.1085 8.91261L7.13839 8.92595C7.44839 9.05133 7.78726 8.79509 7.73845 8.4579L7.40386 6.1473L9.04163 4.47328L9.0643 4.44836C9.27916 4.19416 9.13852 3.79556 8.80101 3.73755L6.4856 3.33962L5.38925 1.27491C5.22409 0.963905 4.77575 0.963905 4.61058 1.27491L3.51402 3.33962Z" fill="#34A853"/>
</svg>
