<svg xmlns="http://www.w3.org/2000/svg" width="20" height="20" viewBox="0 0 20 20">
    <g fill="none" fill-rule="evenodd">
        <g fill="#C9C9C9">
            <g>
                <path d="M2 50l.007.117c.057.498.48.883.993.883h14c.553 0 1-.447 1-1V36l-.007-.117c-.057-.497-.48-.883-.993-.883H3l-.117.007c-.498.058-.883.48-.883.993v14zM.005 35.824C.096 34.249 1.402 33 3 33h14c1.657 0 3 1.343 3 3v14l-.005.176C19.904 51.751 18.598 53 17 53H3l-.176-.005C1.249 52.904 0 51.598 0 50V36z" transform="translate(-24.000000, -687.000000) translate(24.000000, 654.000000)"/>
            </g>
        </g>
    </g>
</svg>
