<svg width="48" height="48" viewBox="0 0 48 48" fill="none" xmlns="http://www.w3.org/2000/svg">
<path fill-rule="evenodd" clip-rule="evenodd" d="M37.435 10.565C38.4113 11.5413 38.4113 13.1242 37.435 14.1005L14.1005 37.4351C13.1242 38.4114 11.5413 38.4114 10.565 37.4351C9.58866 36.4587 9.58866 34.8758 10.565 33.8995L33.8995 10.565C34.8758 9.58869 36.4587 9.58869 37.435 10.565ZM37.7175 16.6447C39.4153 18.1603 41.0474 19.9764 42.612 22.0872L42.9179 22.5049L44 24L42.9179 25.4951C37.4271 33.0814 31.0922 37 24 37C22.0296 37 20.1176 36.6976 18.266 36.098L22.4512 31.9143C22.7362 31.9461 23.0223 31.9691 23.3097 31.9832L23.6626 31.996L24 32C28.8415 32 33.3415 29.5299 37.5622 24.4093L37.8938 24L37.5621 23.5905C36.468 22.2632 35.3552 21.114 34.2225 20.1398L37.7175 16.6447ZM24 11C25.9708 11 27.883 11.3026 29.735 11.9024L25.5498 16.0859C25.2645 16.054 24.978 16.031 24.6903 16.0169L24.3374 16.004L24 16C19.1585 16 14.6585 18.4702 10.4377 23.5907L10.1052 24L10.4379 24.4095C11.532 25.7368 12.6448 26.886 13.7775 27.8603L10.2825 31.3553C8.58469 29.8397 6.95255 28.0237 5.38804 25.9128L5.08213 25.4951L4 24L5.08213 22.5049C10.5729 14.9187 16.9078 11 24 11Z" fill="#333333"/>
</svg>
