<svg width="48" height="48" viewBox="0 0 48 48" fill="none" xmlns="http://www.w3.org/2000/svg">
<path fill-rule="evenodd" clip-rule="evenodd" d="M24 11C30.9608 11 37.1922 14.7748 42.612 22.0872L42.9179 22.5049L44 24L42.9179 25.4951C37.4271 33.0814 31.0922 37 24 37C17.0392 37 10.8078 33.2252 5.38804 25.9128L5.08213 25.4951L4 24L5.08213 22.5049C10.5729 14.9186 16.9078 11 24 11ZM24 15C18.81 15 13.9862 17.7789 9.46166 23.5395L9.10522 24L9.46183 24.4607C13.7706 29.9464 18.3507 32.7282 23.26 32.981L23.6383 32.9955L24 33C29.19 33 34.0138 30.2211 38.5384 24.4605L38.8938 24L38.5382 23.5393C34.2295 18.0536 29.6493 15.2718 24.74 15.019L24.3617 15.0045L24 15ZM24 18C27.3137 18 30 20.6863 30 24C30 27.3137 27.3137 30 24 30C20.6863 30 18 27.3137 18 24C18 20.6863 20.6863 18 24 18Z" fill="#333333"/>
</svg>
