<svg width="124" height="126" viewBox="0 0 124 126" fill="none" xmlns="http://www.w3.org/2000/svg">
<path d="M64.7165 64.7632C64.6543 64.8497 64.3932 65.2686 64.7286 65.7392C64.7499 65.768 64.7651 65.7923 64.7727 65.8135C68.7965 68.2299 80.8633 78.0093 80.8633 84.9003V99.1786H44.4473V84.8958C44.4473 77.9593 56.678 68.025 60.6123 65.7392C60.7383 65.5631 60.7792 65.3931 60.7792 65.2459C60.7792 64.9514 60.6123 64.7465 60.6123 64.7465C56.6689 62.409 44.4458 52.5492 44.4458 45.6126V31.3344H80.8633V45.6172C80.8633 52.5416 68.672 62.4545 64.7165 64.7617V64.7632Z" fill="#B0D4FF"/>
<path d="M45.745 99.1786H79.4258C81.3716 99.1786 82.9532 100.759 82.9532 102.706V102.858H42.0673C42.0673 100.828 43.7156 99.1801 45.745 99.1801V99.1786Z" fill="#34A853"/>
<path d="M54.8718 85.7776C54.6851 88.9741 55.2938 95.8666 55.2376 99.177H44.4473V84.8942C44.4473 77.9577 56.678 68.0234 60.6123 65.7376C60.7383 65.5615 60.7792 65.3915 60.7792 65.2443C60.7792 64.9498 60.6123 64.7449 60.6123 64.7449C56.6689 62.4074 44.4458 52.5476 44.4458 45.6111V31.3328H51.6646L56.8177 32.7428V44.034C56.8177 44.034 56.3077 47.2867 57.5857 50.4803C58.8637 53.6738 61.6065 63.9222 61.564 65.2534C61.5215 66.5845 55.1906 80.2982 54.8703 85.776L54.8718 85.7776Z" fill="#A4C8FC"/>
<path d="M76.1457 40.8253C73.9372 40.8587 70.1426 41.2564 64.0015 42.8061C59.797 43.8671 52.5494 43.0672 48.7153 42.5192C47.3705 42.3265 46.1669 43.3692 46.1669 44.7277V46.373C46.1669 50.9068 58.3672 60.7302 61.5942 63.2483C62.0829 63.6293 62.3683 64.2152 62.3683 64.8345V90.0503C62.3683 90.9109 61.9433 91.7123 61.239 92.2071C58.7012 93.983 54.4269 99.18 54.4269 99.18H70.5964C70.5964 99.18 66.26 94.1651 63.8269 92.3043C63.2714 91.8793 62.9435 91.222 62.9435 90.5223V64.8299C62.9435 64.2137 63.2243 63.6308 63.7055 63.2453C66.8686 60.712 78.8019 50.8537 78.8019 46.3229V43.4436C78.8019 41.9834 77.6073 40.8071 76.1472 40.8284L76.1457 40.8253Z" fill="#739AF0"/>
<path d="M42.0673 29.0667H82.9532C82.9532 31.096 81.3048 32.7444 79.2755 32.7444H45.6144C43.658 32.7444 42.0688 31.1552 42.0688 29.1987V29.0667H42.0673Z" fill="#34A853"/>
<path d="M19.4471 21.4464L18.0329 20.0322L18.0329 20.0322L19.4471 21.4464ZM102.3 22.0388C103.404 22.0019 104.269 21.0771 104.232 19.9732L103.632 1.9832C103.595 0.87925 102.67 0.0141809 101.566 0.0510192C100.462 0.0878577 99.5974 1.01265 99.6342 2.11661L100.168 18.1077L84.1767 18.6413C83.0728 18.6782 82.2077 19.603 82.2446 20.7069C82.2814 21.8109 83.2062 22.6759 84.3101 22.6391L102.3 22.0388ZM102.273 104.273C79.7915 126.754 43.343 126.754 20.8613 104.273L18.0329 107.101C42.0767 131.145 81.0579 131.145 105.102 107.101L102.273 104.273ZM20.8613 104.273C-1.62043 81.7909 -1.62043 45.3424 20.8613 22.8606L18.0329 20.0322C-6.01095 44.076 -6.01095 83.0572 18.0329 107.101L20.8613 104.273ZM20.8612 22.8607C42.8804 0.843194 78.2979 0.388819 100.867 21.5005L103.6 18.5793C79.4602 -4.00117 41.5824 -3.5156 18.0329 20.0322L20.8612 22.8607Z" fill="#00A651"/>
<path d="M92.4828 21.6941L92.4387 19.8278L101.64 19.6259L100.768 10.4656L102.627 10.2892L103.688 21.4481L92.4828 21.6941Z" fill="#00A651"/>
<path d="M107.681 25.8542C125.978 48.172 125.612 80.6713 106.584 102.582" stroke="#00A651" stroke-width="4" stroke-miterlimit="10" stroke-dasharray="10 10"/>
</svg>
