<svg width="26" height="26" viewBox="0 0 26 26" fill="none" xmlns="http://www.w3.org/2000/svg">
<path fill-rule="evenodd" clip-rule="evenodd" d="M13.0001 2.16667C7.017 2.16667 2.16675 7.01692 2.16675 13C2.16675 18.9831 7.017 23.8333 13.0001 23.8333C18.9832 23.8333 23.8334 18.9831 23.8334 13C23.8334 7.01692 18.9832 2.16667 13.0001 2.16667ZM8.97437 5.56875C7.90009 6.15195 6.96643 6.9613 6.23727 7.93292C6.76072 8.14153 7.36828 8.32506 8.04007 8.4782C8.07229 8.32854 8.10613 8.18067 8.14156 8.03469L8.23175 7.68008C8.43552 6.91466 8.68443 6.20574 8.97437 5.56875ZM10.4048 8.86012C10.4209 8.7881 10.4374 8.71675 10.4542 8.64609L10.5391 8.30683C10.6122 8.02881 10.6908 7.76273 10.7742 7.50982L10.8765 7.21271C11.4684 5.56579 12.2644 4.55 13.0001 4.55C13.7358 4.55 14.5318 5.56579 15.1237 7.21271L15.226 7.50982C15.3094 7.76273 15.388 8.02881 15.461 8.30683L15.5459 8.64609C15.5628 8.71675 15.5792 8.7881 15.5953 8.86012C14.7697 8.94577 13.897 8.99167 13.0001 8.99167C12.1032 8.99167 11.2304 8.94577 10.4048 8.86012ZM7.68274 10.8397C6.71452 10.6279 5.83665 10.357 5.08516 10.0343C4.73925 10.9571 4.55008 11.9565 4.55008 13C4.55008 14.1849 4.79396 15.3128 5.23426 16.3363C5.96328 16.0364 6.80409 15.7837 7.72585 15.5842C7.72232 15.553 7.71886 15.5217 7.71546 15.4904L7.67548 15.087C7.6694 15.0193 7.66362 14.9514 7.65814 14.8833L7.6288 14.4724C7.59875 13.9902 7.58342 13.4986 7.58342 13C7.58342 12.5014 7.59875 12.0098 7.6288 11.5276L7.65814 11.1167C7.66362 11.0486 7.6694 10.9807 7.67548 10.913L7.68274 10.8397ZM10.0869 15.2098C10.0094 14.5077 9.96675 13.7673 9.96675 13C9.96675 12.3872 9.99397 11.7916 10.0444 11.219C10.9899 11.3214 11.9831 11.375 13.0001 11.375C14.0171 11.375 15.0103 11.3214 15.9558 11.219C16.0062 11.7916 16.0334 12.3872 16.0334 13C16.0334 13.7673 15.9907 14.5077 15.9132 15.2098C14.9805 15.1103 14.0019 15.0583 13.0001 15.0583C11.9983 15.0583 11.0197 15.1103 10.0869 15.2098ZM8.134 17.934C7.53562 18.0667 6.98657 18.2233 6.50054 18.4002C7.18605 19.2243 8.02534 19.916 8.97438 20.4313C8.68444 19.7943 8.43552 19.0853 8.23175 18.3199L8.14156 17.9653C8.13903 17.9549 8.13651 17.9445 8.134 17.934ZM17.0258 20.4313C17.9748 19.916 18.8141 19.2243 19.4996 18.4002C19.0136 18.2233 18.4646 18.0667 17.8662 17.934C17.8637 17.9445 17.8611 17.9549 17.8586 17.9653L17.7684 18.3199C17.5646 19.0853 17.3157 19.7943 17.0258 20.4313ZM15.4936 17.5629L15.461 17.6932C15.388 17.9712 15.3094 18.2373 15.226 18.4902L15.1237 18.7873C14.5318 20.4342 13.7358 21.45 13.0001 21.45C12.2644 21.45 11.4684 20.4342 10.8765 18.7873L10.7742 18.4902C10.6908 18.2373 10.6122 17.9712 10.5391 17.6932L10.5065 17.5629C11.302 17.4839 12.1399 17.4417 13.0001 17.4417C13.8602 17.4417 14.6982 17.4839 15.4936 17.5629ZM18.2743 15.5842C19.1961 15.7837 20.0369 16.0364 20.7659 16.3363C21.2062 15.3128 21.4501 14.1849 21.4501 13C21.4501 11.9565 21.2609 10.9571 20.915 10.0343C20.1635 10.357 19.2856 10.6279 18.3174 10.8397L18.3247 10.913C18.3308 10.9807 18.3365 11.0486 18.342 11.1167L18.3714 11.5276C18.4014 12.0098 18.4167 12.5014 18.4167 13L18.4158 13.2133C18.4121 13.6389 18.3971 14.0591 18.3714 14.4724L18.342 14.8833C18.3365 14.9514 18.3308 15.0193 18.3247 15.087L18.2847 15.4904C18.2813 15.5217 18.2778 15.553 18.2743 15.5842ZM17.9601 8.4782C18.6319 8.32505 19.2395 8.14152 19.7629 7.93293C19.0337 6.9613 18.1001 6.15195 17.0258 5.56875C17.3157 6.20574 17.5646 6.91466 17.7684 7.68008L17.8586 8.03469C17.894 8.18067 17.9279 8.32854 17.9601 8.4782Z" fill="#6E7583"/>
</svg>
